<?xml version="1.0" standalone="no"?>
<!DOCTYPE svg PUBLIC "-//W3C//DTD SVG 20010904//EN"
 "http://www.w3.org/TR/2001/REC-SVG-20010904/DTD/svg10.dtd">
<svg version="1.0" xmlns="http://www.w3.org/2000/svg"
 width="16.000000pt" height="16.000000pt" viewBox="0 0 16.000000 16.000000"
 preserveAspectRatio="xMidYMid meet">

<g transform="translate(0.000000,16.000000) scale(0.100000,-0.100000)"
fill="#000000" stroke="none">
<path d="M4 147 c-3 -8 -4 -43 -2 -78 l3 -64 75 0 75 0 0 75 0 75 -73 3 c-55
2 -74 -1 -78 -11z m65 -34 c9 -17 10 -17 28 0 25 22 57 23 49 1 -3 -9 -6 -31
-6 -50 0 -36 -25 -49 -36 -19 -6 14 -8 13 -19 -2 -13 -17 -14 -16 -24 7 l-10
25 0 -23 c-1 -17 -6 -23 -18 -20 -10 2 -18 9 -17 16 1 6 2 28 3 47 1 28 5 35
21 35 10 0 23 -8 29 -17z"/>
</g>
</svg>
